<svg width="278" height="168" viewBox="0 0 278 168" fill="none" xmlns="http://www.w3.org/2000/svg">
<path fill-rule="evenodd" clip-rule="evenodd" d="M32.1825 0.116244L270.834 29.9807H277.899V30.8648L278 30.8775L277.899 31.7174L277.899 140.254V168H32.1825V168V140.254V106.816H58.0106V140.254H250.675V55.1233L27.9807 27.2558L27.9812 27.2895L27.6548 27.1344H27.2957V26.9637L14.604 20.932L14.5722 21.0933L12.6059 19.9824L10.5801 19.0197L10.7104 18.9116L3.45765 14.8143L3.45966 14.8123L0.0854962 12.9061H0.0710416V12.898L0 12.8578L0.0710416 12.7272V9.34894H0.409101C0.189212 8.61807 0.0710416 7.84314 0.0710416 7.04061V0.100357H10.5427H12.6361H31.2415L31.2536 0L32.0556 0.100357H32.1825V0.116244ZM27.9795 27.1763L27.9789 27.1344H27.9846L27.9795 27.1763Z" fill="#F3B718"/>
</svg>
